HIERARCHY
ROOT Hips
{
	OFFSET 0.00000 0.00000 0.00000
	CHANNELS 6 Xposition Yposition Zposition Zrotation Yrotation Xrotation 
	JOINT LHipJoint
	{
		OFFSET 0 0 0
		CHANNELS 3 Zrotation Yrotation Xrotation
		JOINT LeftHip
		{
			OFFSET 1.58895 -1.83665 0.71753
			CHANNELS 3 Zrotation Yrotation Xrotation
			JOINT LeftKnee
			{
				OFFSET 2.50528 -6.88321 0.00000
				CHANNELS 3 Zrotation Yrotation Xrotation
				JOINT LeftAnkle
				{
					OFFSET 2.63244 -7.23257 0.00000
					CHANNELS 3 Zrotation Yrotation Xrotation
					JOINT LeftToe
					{
						OFFSET 0.23691 -0.65090 1.72750
						CHANNELS 3 Zrotation Yrotation Xrotation
						End Site
						{
							OFFSET 0.00000 -0.00000 0.92561
						}
					}
				}
			}
		}
	}
	JOINT RHipJoint
	{
		OFFSET 0 0 0
		CHANNELS 3 Zrotation Yrotation Xrotation
		JOINT RightHip
		{
			OFFSET -1.51435 -1.83665 0.71753
			CHANNELS 3 Zrotation Yrotation Xrotation
			JOINT RightKnee
			{
				OFFSET -2.54551 -6.99375 0.00000
				CHANNELS 3 Zrotation Yrotation Xrotation
				JOINT RightAnkle
				{
					OFFSET -2.66027 -7.30903 0.00000
					CHANNELS 3 Zrotation Yrotation Xrotation
					JOINT RightToe
					{
						OFFSET -0.22981 -0.63138 2.03959
						CHANNELS 3 Zrotation Yrotation Xrotation
						End Site
						{
							OFFSET -0.00000 -0.00000 1.07060
						}
					}
				}
			}
		}
	}
	JOINT lowerback
	{
		OFFSET 0 0 0
		CHANNELS 3 Zrotation Yrotation Xrotation
		JOINT Chest
		{
			OFFSET -0.02651 1.86275 -0.11152
			CHANNELS 3 Zrotation Yrotation Xrotation
			JOINT Chest2
			{
				OFFSET 0.01019 1.86224 0.04087
				CHANNELS 3 Zrotation Yrotation Xrotation
				JOINT lowerneck
				{
					OFFSET 0 0 0
					CHANNELS 3 Zrotation Yrotation Xrotation
					JOINT Neck
					{
						OFFSET -0.01926 1.80512 0.08867
						CHANNELS 3 Zrotation Yrotation Xrotation
						JOINT Head
						{
							OFFSET 0.05516 1.76451 -0.38475
							CHANNELS 3 Zrotation Yrotation Xrotation
							End Site
							{
								OFFSET 0.01592 1.82587 -0.14001
							}
						}
					}
				}
				JOINT LeftCollar
				{
					OFFSET 0 0 0
					CHANNELS 3 Zrotation Yrotation Xrotation
					JOINT LeftShoulder
					{
						OFFSET 3.47116 1.51376 0.14491
CHANNELS 3 Zrotation Xrotation Yrotation
						JOINT LeftElbow
						{
OFFSET 0 -4.780950 0.000000
CHANNELS 3 Zrotation Xrotation Yrotation
							JOINT LeftWrist
							{
OFFSET 0 -3.586150 -0.000000
CHANNELS 3 Zrotation Xrotation Yrotation
								JOINT lhand
								{
									OFFSET 0 0 0
CHANNELS 3 Zrotation Xrotation Yrotation
									JOINT LFingers
									{
OFFSET 0 -0.659810 0.000000
CHANNELS 3 Zrotation Xrotation Yrotation
										End Site
										{
OFFSET 0 -0.531960 0.000000
										}
									}
								}
								JOINT LThumb
								{
OFFSET 0 0.000000 0.000000
CHANNELS 3 Zrotation Xrotation Yrotation
									End Site
									{
OFFSET 0 -0.540080 0.540080
									}
								}
							}
						}
					}
				}
				JOINT RightCollar
				{
					OFFSET 0 0 0
					CHANNELS 3 Zrotation Yrotation Xrotation
					JOINT RightShoulder
					{
						OFFSET -3.31725 1.61216 0.35156
CHANNELS 3 Zrotation Xrotation Yrotation
						JOINT RightElbow
						{
OFFSET 0 -4.489130 0.000000
CHANNELS 3 Zrotation Xrotation Yrotation
							JOINT RightWrist
							{
OFFSET 0 -3.705100 0.000000
CHANNELS 3 Zrotation Xrotation Yrotation
								JOINT rhand
								{
									OFFSET 0 0 0
CHANNELS 3 Zrotation Xrotation Yrotation
									JOINT RFingers
									{
OFFSET 0 -0.449140 0.000000
CHANNELS 3 Zrotation Xrotation Yrotation
										End Site
										{
OFFSET 0 -0.362110 0.000000
										}
									}
								}
								JOINT RThumb
								{
OFFSET 0 0.000000 0.000000
CHANNELS 3 Zrotation Xrotation Yrotation
									End Site
									{
OFFSET 0 -0.367630 0.367630
									}
								}
							}
						}
					}
				}
			}
		}
	}
}
MOTION
Frames: 7
Frame Time: 0.008333333333333333
-0.090686 18.341542 5.041036 -1.010563 -2.980924 1.660598 0.000000 0.000000 0.000000 -13.434678 -2.136754 -14.839193 3.662650 11.697473 34.670002 1.691361 -2.297421 -23.969812 8.479462 -16.460835 -54.271945 0.000000 0.000000 0.000000 11.809258 0.274998 -7.112481 -1.087206 -6.626808 18.614323 -0.942354 2.283930 -17.718503 -1.057227 6.537398 -18.351967 1.316025 -0.421113 20.019784 5.852093 0.289808 2.171195 5.597288 0.204734 -8.894692 0.890090 -0.305641 -15.445495 -7.322564 1.013544 20.403750 -2.529395 -0.253691 8.997328 0.000000 0.000000 0.000000 25.257106 -42.039253 -49.193902 126.634498 -54.265425 91.115363 19.126520 -39.881640 30.158697 0.000000 0.000000 0.000000 -7.125000 0.000000 0.000000 -6.885830 -1.409722 -7.104271 0.000000 0.000000 0.000000 -51.083615 -9.964227 20.202984 -148.437596 -42.194970 -107.553921 -22.728737 11.533012 25.370015 0.000000 0.000000 0.000000 7.125000 0.000000 0.000000 7.703115 57.022320 -2.278415
-0.088057 18.339625 5.045307 -1.056888 -2.702973 1.711194 0.000000 0.000000 0.000000 -13.376635 -2.394061 -14.872978 3.669549 11.707220 34.704007 1.680683 -2.378463 -23.872836 8.464787 -16.450705 -54.220034 0.000000 0.000000 0.000000 11.857773 0.076993 -7.163844 -1.090218 -6.635624 18.640169 -0.956263 2.271391 -17.856110 -1.038281 6.480395 -18.184900 1.385075 -0.451340 19.964752 5.951478 0.270424 2.206185 5.670663 0.194001 -8.824875 0.857071 -0.326723 -15.541486 -7.533491 1.036433 20.303050 -2.592586 -0.267873 8.983584 0.000000 0.000000 0.000000 25.039717 -42.127358 -49.377505 126.928493 -54.161276 91.353888 18.963561 -39.700720 30.246090 0.000000 0.000000 0.000000 -7.125000 0.000000 0.000000 -6.990089 -1.467765 -7.220412 0.000000 0.000000 0.000000 -51.166245 -10.161082 19.922952 -148.669989 -42.006110 -107.709762 -22.663411 11.431436 25.162044 0.000000 0.000000 0.000000 7.125000 0.000000 0.000000 7.682745 56.793761 -2.229845
-0.088085 18.339295 5.049504 -1.107751 -2.356324 1.772380 0.000000 0.000000 0.000000 -13.304867 -2.708261 -14.895105 3.669144 11.706600 34.701892 1.665763 -2.443197 -23.748114 8.472028 -16.455701 -54.245640 0.000000 0.000000 0.000000 11.929791 -0.139644 -7.170970 -1.084854 -6.619721 18.593479 -0.972053 2.181815 -18.027660 -1.037191 6.477185 -18.175485 1.448553 -0.484518 19.976500 6.025739 0.250006 2.196164 5.723562 0.184228 -8.841061 0.793208 -0.370089 -15.666624 -7.651001 1.018627 20.252232 -2.624711 -0.294969 8.989652 0.000000 0.000000 0.000000 24.822770 -42.192921 -49.679762 127.283365 -54.033255 91.641189 18.843842 -39.678041 30.300795 0.000000 0.000000 0.000000 -7.125000 0.000000 0.000000 -7.065533 -1.500868 -7.303459 0.000000 0.000000 0.000000 -51.204785 -10.346795 19.622406 -148.965177 -41.762830 -107.906556 -22.435341 10.709621 24.880026 0.000000 0.000000 0.000000 7.125000 0.000000 0.000000 7.804974 56.454664 -2.199980
-0.089400 18.339733 5.053666 -1.160812 -1.976413 1.838691 0.000000 0.000000 0.000000 -13.226453 -3.050005 -14.911587 3.665201 11.700960 34.682288 1.648788 -2.500036 -23.609960 8.489879 -16.468022 -54.308776 0.000000 0.000000 0.000000 12.013187 -0.365301 -7.156679 -1.075436 -6.591849 18.511671 -0.988754 2.054941 -18.215644 -1.044748 6.500019 -18.242400 1.509335 -0.519125 20.020580 6.087834 0.229089 2.164350 5.766547 0.174919 -8.898885 0.714412 -0.424245 -15.805873 -7.723282 0.981118 20.225565 -2.641796 -0.328317 9.005313 0.000000 0.000000 0.000000 24.606038 -42.247569 -50.039467 127.667711 -53.893677 91.952104 18.745058 -39.731978 30.339673 0.000000 0.000000 0.000000 -7.125000 0.000000 0.000000 -7.127026 -1.521895 -7.370483 0.000000 0.000000 0.000000 -51.221979 -10.527113 19.311929 -149.290767 -41.493202 -108.123178 -22.128478 9.687510 24.562156 0.000000 0.000000 0.000000 7.125000 0.000000 0.000000 7.996243 56.062050 -2.179172
-0.095865 18.344441 5.058106 -1.252254 -1.461865 1.948769 0.000000 0.000000 0.000000 -13.084829 -3.523741 -14.930019 3.650352 11.679911 34.608988 1.625454 -2.555946 -23.423585 8.499097 -16.474355 -54.341141 0.000000 0.000000 0.000000 12.170841 -0.677097 -7.114123 -1.051352 -6.519562 18.299820 -1.004063 1.810090 -18.419454 -1.082843 6.612612 -18.573205 1.552619 -0.558373 20.036396 6.146078 0.198378 2.111697 5.818118 0.161990 -8.963532 0.549523 -0.519938 -15.966564 -7.609455 0.868377 20.221314 -2.590285 -0.384034 9.027749 0.000000 0.000000 0.000000 24.377704 -42.368771 -50.498351 128.063242 -53.746441 92.271188 18.660106 -39.706367 30.389040 0.000000 0.000000 0.000000 -7.125000 0.000000 0.000000 -7.181650 -1.556010 -7.432077 0.000000 0.000000 0.000000 -51.182877 -10.551212 19.595555 -149.710804 -41.137575 -108.399763 -22.270035 10.289494 24.939332 0.000000 0.000000 0.000000 7.125000 0.000000 0.000000 8.008274 56.480416 -2.263948
-0.103419 18.350052 5.062565 -1.352193 -0.919152 2.068523 0.000000 0.000000 0.000000 -12.929210 -4.024320 -14.950104 3.633207 11.655608 34.524355 1.600721 -2.611964 -23.226465 8.506189 -16.479217 -54.365952 0.000000 0.000000 0.000000 12.344467 -1.006960 -7.066597 -1.024196 -6.437868 18.060457 -1.019070 1.542317 -18.626242 -1.125902 6.739753 -18.946799 1.592813 -0.598537 20.045858 6.203742 0.165791 2.054873 5.871335 0.148361 -9.029169 0.368024 -0.624204 -16.131786 -7.459568 0.740296 20.220636 -2.525583 -0.444419 9.051300 0.000000 0.000000 0.000000 24.145239 -42.504930 -50.977571 128.457704 -53.598932 92.589245 18.574783 -39.661793 30.443066 0.000000 0.000000 0.000000 -7.125000 0.000000 0.000000 -7.237000 -1.594751 -7.495054 0.000000 0.000000 0.000000 -51.134719 -10.550973 19.972936 -150.149252 -40.764983 -108.687965 -22.473976 11.128752 25.423476 0.000000 0.000000 0.000000 7.125000 0.000000 0.000000 7.999651 57.022213 -2.366583
-0.118368 18.361880 5.065632 -1.525228 -0.195307 2.271072 0.000000 0.000000 0.000000 -12.653230 -4.667178 -15.029941 3.600736 11.609118 34.362929 1.564197 -2.680576 -22.934332 8.486914 -16.465966 -54.298107 0.000000 0.000000 0.000000 12.638134 -1.454935 -7.024269 -0.977159 -6.291117 17.632031 -1.031719 1.196356 -18.839086 -1.144739 6.793799 -19.106090 1.635579 -0.642453 19.997014 6.266604 0.127899 1.978650 5.929214 0.132481 -9.083927 0.134865 -0.779004 -16.327929 -7.190980 0.529259 20.198897 -2.421707 -0.534331 9.070027 0.000000 0.000000 0.000000 23.819046 -42.778118 -51.571312 128.710904 -53.502010 92.792835 18.358434 -39.403774 30.624205 0.000000 0.000000 0.000000 -7.125000 0.000000 0.000000 -7.382273 -1.737724 -7.666282 0.000000 0.000000 0.000000 -51.135595 -10.723077 19.749687 -150.653080 -40.323744 -109.014322 -21.840262 9.453707 25.080308 0.000000 0.000000 0.000000 7.125000 0.000000 0.000000 8.522151 56.535525 -2.417344
